<svg xmlns="http://www.w3.org/2000/svg" viewBox="0 0 3055.35 77.24"><defs><style>.cls-1{fill:#bfc1c2;}.cls-2{font-size:29px;fill:#fff;font-family:FibraOne-Heavy, Fibra One;font-weight:800;}</style></defs><g id="Layer_2" data-name="Layer 2"><g id="alapok_szövegek" data-name="alapok, szövegek"><path class="cls-1" d="M0,72.7C158.85,93.76,333.56,34,493.45,48.39,595.72,57.61,696,75.72,798.81,75c70.84-.5,149.63-8,220.15-2.3h0c158.85,21,333.55-38.72,493.43-24.31C1614.66,57.61,1714.9,75.72,1817.75,75c70.85-.5,149.63-8,220.16-2.3v.19c158.44,20.48,332.55-38.86,491.92-24.5C2632.1,57.61,2732.35,75.72,2835.19,75c70.85-.5,149.64-8,220.16-2.3V26.57c-70.52-5.75-149.31,1.81-220.16,2.3-102.84.73-203.09-17.38-305.36-26.6-159.37-14.37-333.48,45-491.92,24.49v-.19c-70.53-5.75-149.31,1.81-220.16,2.3-102.85.73-203.09-17.38-305.36-26.6C1352.51-12.14,1177.81,47.63,1019,26.58h0c-70.52-5.75-149.31,1.81-220.15,2.3C696,29.6,595.72,11.49,493.45,2.27,333.56-12.14,158.85,47.63,0,26.57"/><text class="cls-2" transform="translate(1212.22 57.46) rotate(-6.67)">M</text><text class="cls-2" transform="translate(1243.76 53.73) rotate(-7.1)">U</text><text class="cls-2" transform="matrix(0.99, -0.13, 0.13, 0.99, 1271.53, 50.25)">N</text><text class="cls-2" transform="matrix(0.99, -0.12, 0.12, 0.99, 1299.76, 46.69)">K</text><text class="cls-2" transform="matrix(0.99, -0.11, 0.11, 0.99, 1325.45, 43.56)">A</text><text class="cls-2" transform="translate(1350.31 40.78) rotate(-5.79)">T</text><text class="cls-2" transform="translate(1371.05 38.68) rotate(-4.89)">Á</text><text class="cls-2" transform="translate(1397.64 36.46) rotate(-3.59)">R</text><text class="cls-2" transform="translate(1422.6 34.97) rotate(-2.06)">S</text><text class="cls-2" transform="matrix(1, 0, 0, 1, 1446.58, 34.16)">A</text><text class="cls-2" transform="translate(1473.19 34.19) rotate(2.13)">K</text></g></g></svg>